<?xml version="1.0" standalone="no"?>
<!DOCTYPE svg PUBLIC "-//W3C//DTD SVG 20010904//EN"
 "http://www.w3.org/TR/2001/REC-SVG-20010904/DTD/svg10.dtd">
<svg version="1.0" xmlns="http://www.w3.org/2000/svg"
 width="600.000000pt" height="600.000000pt" viewBox="0 0 600.000000 600.000000"
 preserveAspectRatio="xMidYMid meet">

<g transform="translate(0.000000,600.000000) scale(0.100000,-0.100000)"
fill="#FFAA5A" stroke="none">
<path d="M240 4595 l0 -25 2775 0 2775 0 0 25 0 25 -2775 0 -2775 0 0 -25z"/>
<path d="M621 4497 c-45 -15 -60 -41 -228 -397 -152 -320 -208 -456 -243 -580
-13 -47 -27 -90 -32 -97 -25 -32 -51 -163 -53 -263 -1 -58 -7 -125 -13 -150
-15 -59 -15 -123 0 -138 7 -7 24 -12 40 -12 23 0 29 6 38 39 6 22 14 79 18
128 9 107 25 116 59 30 28 -71 180 -299 257 -388 77 -89 192 -188 315 -270
131 -88 132 -88 278 38 78 67 101 99 109 151 9 58 -18 81 -141 121 -235 77
-387 173 -575 361 -69 69 -148 158 -175 197 l-48 73 28 71 c34 87 49 96 141
82 l66 -9 15 35 c8 20 93 218 188 441 95 223 178 422 186 443 16 44 14 46 -66
76 -70 26 -124 32 -164 18z m125 -32 c102 -30 112 15 -105 -494 -106 -248
-195 -451 -198 -451 -11 0 -128 88 -152 114 -31 33 -30 71 4 171 57 170 279
633 317 659 28 20 70 20 134 1z m-436 -883 c30 -25 57 -49 58 -53 2 -5 -10 -9
-27 -9 -17 0 -30 4 -29 8 2 5 -21 31 -50 58 -52 47 -53 50 -41 77 l13 28 10
-32 c7 -20 33 -50 66 -77z m-97 -41 c10 -12 9 -12 -11 0 -12 8 -20 20 -17 27
3 8 6 19 6 25 1 7 4 1 6 -13 3 -14 10 -31 16 -39z m-7 -213 c67 -112 115 -171
228 -283 172 -171 361 -289 571 -357 57 -18 110 -42 123 -55 21 -21 22 -25 8
-50 -8 -16 -25 -38 -38 -50 -41 -37 -187 -133 -203 -133 -22 0 -133 73 -227
148 -125 101 -279 280 -360 417 -16 28 -33 57 -38 65 -14 24 -117 253 -125
278 -5 17 -2 27 11 36 10 7 14 18 10 25 -6 9 -11 9 -22 0 -14 -11 -20 1 -7 14
16 17 34 3 69 -55z m-93 -71 c3 -8 -1 -14 -9 -14 -15 0 -18 9 -7 20 9 9 10 9
16 -6z m-26 -69 c-3 -8 -6 -5 -6 6 -1 11 2 17 5 13 3 -3 4 -12 1 -19z m10 -70
c-3 -8 -6 -5 -6 6 -1 11 2 17 5 13 3 -3 4 -12 1 -19z m-11 -84 c-4 -20 -10
-34 -12 -31 -3 3 -2 21 2 41 3 21 9 35 11 32 3 -3 2 -21 -1 -42z m41 24 c-3
-8 -6 -5 -6 6 -1 11 2 17 5 13 3 -3 4 -12 1 -19z m-10 -80 c-3 -8 -6 -5 -6 6
-1 11 2 17 5 13 3 -3 4 -12 1 -19z m-50 -40 c-3 -8 -6 -5 -6 6 -1 11 2 17 5
13 3 -3 4 -12 1 -19z m53 7 c0 -8 -2 -15 -4 -15 -2 0 -6 7 -10 15 -3 8 -1 15
4 15 6 0 10 -7 10 -15z m-25 -63 c-3 -3 -11 0 -18 7 -9 10 -8 11 6 5 10 -3 15
-9 12 -12z"/>
<path d="M639 4443 c-16 -4 -209 -388 -272 -543 -47 -113 -70 -197 -63 -223 6
-21 115 -112 123 -103 3 2 -14 21 -36 41 -42 38 -61 83 -61 142 0 24 7 37 32
54 l31 23 23 -30 c32 -39 30 -23 -2 26 -29 43 -26 62 7 42 19 -12 19 -12 4 17
-20 40 -19 64 4 85 21 19 31 16 68 -17 35 -31 36 -15 3 31 -37 52 -37 78 0
121 27 31 30 32 45 17 24 -24 28 -20 9 9 -24 37 -10 42 16 6 35 -51 44 -35 12
22 -23 41 -27 57 -20 76 l9 24 31 -29 31 -29 -25 40 c-34 55 -26 73 19 39 l35
-26 -22 42 c-21 41 -21 42 -3 86 10 24 21 44 26 44 4 0 7 5 7 10 0 10 -4 11
-31 3z"/>
<path d="M170 3298 c0 -19 116 -249 160 -318 118 -182 261 -339 420 -461 127
-98 141 -105 181 -89 18 8 69 49 113 92 97 93 98 91 -56 141 -226 76 -394 183
-583 372 -79 79 -148 158 -175 202 -43 69 -60 86 -60 61z m120 -171 c0 -6 -9
-2 -20 8 -11 10 -20 23 -20 28 0 6 9 2 20 -8 11 -10 20 -23 20 -28z m21 -54
c13 -16 12 -17 -3 -4 -10 7 -18 15 -18 17 0 8 8 3 21 -13z m104 -84 c18 -1 18
-2 2 -6 -10 -3 -27 3 -37 12 -12 11 -20 13 -25 6 -3 -6 -1 -11 4 -11 6 0 11
-5 11 -12 0 -7 -7 -5 -17 6 -13 13 -14 20 -6 23 7 2 9 12 6 21 -3 9 5 5 18
-10 14 -16 33 -29 44 -29z m35 -53 c0 -6 -5 -3 -11 7 -6 9 -15 14 -21 11 -7
-4 -8 -2 -4 5 9 14 36 -3 36 -23z m-10 -22 c0 -2 -9 0 -20 6 -11 6 -20 13 -20
16 0 2 9 0 20 -6 11 -6 20 -13 20 -16z m58 -14 c7 -11 11 -20 9 -20 -2 0 -12
9 -22 20 -10 11 -14 20 -9 20 5 0 15 -9 22 -20z m-60 -20 c7 -11 9 -20 4 -20
-10 0 -32 22 -32 32 0 15 15 8 28 -12z m82 -33 c10 -4 7 -6 -7 -6 -26 -1 -31
-16 -8 -25 8 -3 15 -11 14 -18 0 -10 -2 -10 -6 0 -2 6 -11 12 -19 12 -8 0 -14
6 -14 14 0 8 -8 17 -17 19 -14 4 -13 5 4 6 17 1 21 5 16 19 -5 16 -5 16 8 1 8
-9 21 -19 29 -22z m110 -27 c0 -5 -2 -10 -4 -10 -3 0 -8 5 -11 10 -3 6 -1 10
4 10 6 0 11 -4 11 -10z m-55 -12 c5 4 5 1 1 -5 -10 -18 -23 -16 -30 3 -5 13
-4 14 7 6 8 -7 18 -8 22 -4z m45 -18 c11 -11 16 -20 12 -20 -5 0 -17 9 -27 20
-10 11 -15 20 -12 20 4 0 16 -9 27 -20z m60 -5 c5 3 12 0 16 -6 4 -8 3 -9 -4
-5 -7 4 -12 2 -12 -4 0 -6 -4 -8 -10 -5 -5 3 -10 14 -9 23 0 11 2 12 6 4 2 -6
9 -10 13 -7z m-83 -11 c-3 -3 -12 -4 -19 -1 -8 3 -5 6 6 6 11 1 17 -2 13 -5z
m-57 -24 c0 -5 -4 -10 -10 -10 -5 0 -10 5 -10 10 0 6 5 10 10 10 6 0 10 -4 10
-10z m141 -16 c24 -26 24 -26 2 -15 -13 6 -23 16 -23 21 0 5 -8 11 -17 13 -14
4 -15 5 -2 6 8 0 26 -11 40 -25z m79 5 c12 -9 10 -10 -8 -6 -15 4 -22 1 -19
-6 3 -7 11 -11 18 -9 11 3 12 1 2 -9 -11 -10 -16 -9 -27 6 -11 15 -11 22 -3
27 16 10 19 10 37 -3z m-190 -19 c0 -5 7 -10 15 -10 8 0 15 -8 15 -17 0 -15
-2 -16 -10 -3 -5 8 -10 11 -10 7 0 -9 -30 18 -30 27 0 3 5 6 10 6 6 0 10 -4
10 -10z m105 -20 c10 -11 16 -20 13 -20 -3 0 -13 9 -23 20 -10 11 -16 20 -13
20 3 0 13 -9 23 -20z m125 -5 c14 -19 14 -19 -2 -6 -10 7 -18 18 -18 24 0 6 1
8 3 6 1 -2 9 -13 17 -24z m55 -6 c11 -16 1 -19 -13 -3 -7 8 -8 14 -3 14 5 0
13 -5 16 -11z m-188 -15 c9 -8 18 -32 19 -52 4 -35 3 -36 -11 -18 -8 11 -21
24 -27 29 -8 5 -4 6 11 2 17 -5 22 -4 19 6 -3 9 -16 13 -35 11 -21 -2 -30 1
-30 12 0 9 4 16 9 16 4 0 8 -4 8 -10 0 -5 5 -10 11 -10 6 0 9 7 5 15 -7 19 1
19 21 -1z m73 -36 c0 -2 -10 -4 -22 -5 -13 0 -18 1 -11 4 7 2 9 12 5 21 -5 16
-5 16 11 0 9 -9 17 -18 17 -20z m109 14 c11 -20 -2 -52 -13 -33 -4 6 -3 11 3
11 16 0 1 28 -17 33 -15 4 -15 5 0 6 10 0 22 -7 27 -17z m86 8 c3 -5 2 -10 -4
-10 -5 0 -17 -3 -27 -7 -16 -6 -17 -5 -4 10 17 19 26 21 35 7z m-145 -25 c11
-13 10 -14 -4 -9 -9 3 -16 10 -16 15 0 13 6 11 20 -6z m27 -7 c-3 -8 -6 -5 -6
6 -1 11 2 17 5 13 3 -3 4 -12 1 -19z m178 12 c3 -5 2 -10 -4 -10 -5 0 -13 5
-16 10 -3 6 -2 10 4 10 5 0 13 -4 16 -10z m71 -35 c13 -14 18 -25 13 -25 -6 0
-19 10 -30 23 -12 15 -18 17 -19 8 0 -8 8 -24 18 -35 13 -15 10 -14 -15 4 -28
22 -47 50 -24 35 5 -3 12 -1 16 5 9 15 15 13 41 -15z m-322 -1 c9 -24 4 -24
-18 -3 -16 16 -17 19 -4 19 9 0 19 -7 22 -16z m286 -41 c0 -8 -38 17 -51 33
-9 11 -2 9 19 -6 17 -13 32 -25 32 -27z m-272 -13 c6 0 13 -7 16 -16 5 -13 9
-14 20 -5 12 10 13 8 9 -8 -3 -12 -7 -21 -9 -21 -8 0 -94 87 -94 95 0 6 12 -2
25 -17 13 -16 28 -28 33 -28z m82 40 c0 -5 -7 -7 -15 -4 -8 4 -15 8 -15 10 0
2 7 4 15 4 8 0 15 -4 15 -10z m110 -9 c14 -27 3 -50 -27 -57 -34 -9 -58 16
-49 50 5 21 12 26 36 26 19 0 33 -7 40 -19z m-170 -11 c0 -5 -2 -10 -4 -10 -3
0 -8 5 -11 10 -3 6 -1 10 4 10 6 0 11 -4 11 -10z m50 -6 c0 -2 -7 -4 -15 -4
-8 0 -15 4 -15 10 0 5 7 7 15 4 8 -4 15 -8 15 -10z m209 -25 c-17 -11 -49 -12
-49 -1 0 4 14 8 31 8 22 1 27 -1 18 -7z m-179 -47 c0 -2 -5 0 -11 4 -6 3 -15
1 -19 -6 -5 -9 -9 -9 -14 -1 -4 6 -3 11 3 11 6 0 8 7 4 16 -5 14 -3 13 15 -2
12 -10 22 -20 22 -22z m100 -12 c0 -5 -2 -10 -4 -10 -3 0 -8 5 -11 10 -3 6 -1
10 4 10 6 0 11 -4 11 -10z m-57 -27 c-7 -2 -19 -2 -25 0 -7 3 -2 5 12 5 14 0
19 -2 13 -5z"/>
<path d="M891 2572 c-12 -23 2 -47 23 -39 23 9 32 37 15 48 -20 13 -27 11 -38
-9z"/>
<path d="M5079 4495 c-49 -12 -128 -54 -148 -79 -10 -12 2 -39 77 -158 250
-399 454 -723 456 -725 1 -1 24 4 51 12 26 8 65 15 86 15 35 0 40 -4 73 -59
20 -32 36 -69 36 -82 0 -34 -87 -193 -161 -296 -80 -112 -253 -285 -344 -345
-38 -25 -110 -67 -160 -93 -108 -56 -149 -95 -140 -134 13 -57 85 -122 206
-186 109 -57 113 -56 259 93 74 75 152 165 189 221 77 113 205 383 221 468 7
35 19 64 27 67 16 7 16 7 43 -103 27 -109 44 -141 73 -141 54 0 62 60 21 155
-16 38 -28 87 -31 135 -5 73 -19 112 -83 230 -10 19 -48 94 -84 165 -35 72
-89 166 -118 210 -78 116 -395 576 -416 603 -24 31 -77 42 -133 27z m97 -29
c23 -16 229 -309 324 -460 74 -117 130 -231 130 -263 0 -31 -144 -183 -159
-168 -6 6 -125 193 -265 415 -180 287 -251 409 -244 417 18 22 131 73 162 73
18 0 41 -6 52 -14z m499 -722 c16 -24 15 -27 -11 -62 -43 -56 -77 -89 -104
-97 -20 -6 -14 3 29 50 56 62 74 95 65 120 -9 23 2 18 21 -11z m48 -89 c4 -8
2 -17 -3 -20 -6 -4 -10 3 -10 14 0 25 6 27 13 6z m85 -183 c2 -7 -2 -10 -11
-6 -8 3 -18 0 -22 -6 -4 -7 2 -14 15 -17 18 -5 20 -10 14 -37 -14 -66 -83
-304 -108 -369 -37 -98 -127 -255 -211 -366 -78 -103 -253 -281 -276 -281 -8
0 -64 24 -124 54 -193 95 -200 129 -46 209 129 67 182 102 287 190 180 151
310 332 427 597 22 50 44 63 55 32z m52 -102 c8 -15 8 -20 -3 -20 -7 0 -13 9
-13 20 0 11 1 20 3 20 1 0 7 -9 13 -20z m-1 -160 c0 -8 -6 0 -14 19 -8 18 -15
36 -15 40 1 13 29 -45 29 -59z m28 18 c-3 -8 -6 -5 -6 6 -1 11 2 17 5 13 3 -3
4 -12 1 -19z m-20 -60 c-3 -8 -6 -5 -6 6 -1 11 2 17 5 13 3 -3 4 -12 1 -19z
m53 -20 c0 -5 -4 -8 -10 -8 -5 0 -10 10 -10 23 0 18 2 19 10 7 5 -8 10 -18 10
-22z m-43 -20 c-3 -8 -6 -5 -6 6 -1 11 2 17 5 13 3 -3 4 -12 1 -19z m20 -80
c-3 -8 -6 -5 -6 6 -1 11 2 17 5 13 3 -3 4 -12 1 -19z"/>
<path d="M5120 4445 c0 -3 13 -26 29 -52 28 -44 28 -48 15 -86 -19 -55 -18
-56 15 -17 24 29 30 32 36 18 3 -9 -1 -31 -10 -48 -9 -18 -15 -34 -12 -36 2
-2 10 7 17 21 15 29 23 31 40 10 10 -11 9 -23 -3 -57 -8 -24 -18 -52 -22 -63
-4 -13 4 -8 25 15 18 19 29 27 26 18 -3 -10 -9 -26 -12 -35 -3 -10 3 -6 13 9
l19 28 37 -38 c20 -21 37 -46 37 -55 0 -10 -12 -41 -26 -70 l-26 -52 40 38
c34 34 43 37 61 28 26 -15 35 -49 22 -85 -15 -37 -13 -45 4 -22 24 32 30 9 12
-42 l-17 -47 21 28 c26 33 30 33 69 0 30 -25 31 -28 25 -77 -8 -58 -24 -93
-54 -120 -12 -11 -21 -24 -21 -30 0 -6 25 14 56 44 51 51 55 58 51 91 -3 20
-33 86 -67 145 -73 127 -320 489 -356 522 -23 20 -44 29 -44 17z"/>
<path d="M5757 3378 c-9 -21 -24 -54 -32 -73 -22 -51 -90 -160 -143 -230 -158
-207 -321 -344 -539 -454 -46 -23 -83 -48 -83 -55 0 -22 74 -80 155 -121 l74
-38 42 29 c60 41 198 201 280 323 112 166 193 344 249 544 25 90 23 133 -3 75z
m-47 -164 c-18 -21 -24 -10 -8 15 7 12 14 17 16 11 2 -6 -2 -17 -8 -26z m-87
-154 c-3 -11 -10 -20 -15 -20 -5 0 -6 -5 -3 -10 4 -6 12 -7 18 -3 7 4 5 -2 -3
-13 -22 -29 -24 -30 -17 -12 8 21 -3 31 -20 17 -9 -9 -13 -8 -13 0 0 6 5 11
11 11 5 0 7 5 4 10 -3 6 0 10 8 10 8 0 17 7 21 15 8 22 15 18 9 -5z m37 11 c0
-5 -8 -15 -17 -22 -16 -12 -17 -12 -6 2 7 9 10 19 6 22 -3 4 -1 7 5 7 7 0 12
-4 12 -9z m-74 -82 c3 -6 1 -16 -6 -22 -10 -9 -11 -9 -5 2 4 8 2 17 -6 22 -9
6 -10 9 -2 9 6 0 15 -5 19 -11z m-48 -33 c-7 -8 -15 -12 -17 -11 -5 6 10 25
20 25 5 0 4 -6 -3 -14z m72 -5 c0 -5 -6 -14 -14 -20 -12 -10 -14 -9 -11 6 2
10 4 19 4 21 2 6 21 1 21 -7z m-42 -55 c-10 -7 -18 -18 -18 -25 0 -6 -8 -11
-17 -10 -11 0 -13 3 -5 6 6 2 12 11 12 18 0 13 15 23 35 24 6 0 2 -6 -7 -13z
m-83 -56 c-3 -5 -14 -10 -23 -9 -14 0 -13 2 3 9 27 11 27 11 20 0z m53 -8 c2
-7 -1 -12 -8 -12 -6 0 -9 4 -6 9 4 5 1 12 -4 14 -6 3 -5 4 2 3 6 -1 14 -8 16
-14z m-155 -8 c-5 -14 -1 -16 20 -12 15 3 24 1 21 -3 -3 -5 -16 -9 -30 -9 -13
0 -24 -6 -25 -12 0 -10 -2 -10 -6 0 -2 6 -10 9 -16 5 -7 -4 -1 5 13 20 29 31
31 32 23 11z m108 -17 c-10 -9 -11 -8 -5 6 3 10 9 15 12 12 3 -3 0 -11 -7 -18z
m-21 9 c0 -2 -7 -7 -16 -10 -8 -3 -12 -2 -9 4 6 10 25 14 25 6z m20 -60 c-17
-25 -33 -46 -35 -46 -9 0 3 29 18 44 9 10 22 27 28 38 6 11 13 17 16 15 3 -3
-9 -26 -27 -51z m-87 24 c-13 -5 -23 -15 -23 -21 0 -7 -2 -10 -5 -7 -12 11 9
38 29 37 21 0 21 0 -1 -9z m-74 -41 c-5 -10 -17 -18 -27 -18 -16 1 -16 2 1 6
9 2 17 11 17 19 0 9 -5 12 -12 8 -7 -4 -8 -3 -4 4 4 6 13 9 21 6 11 -5 12 -11
4 -25z m55 -19 c-10 -16 -20 -28 -22 -26 -4 5 28 56 35 56 2 0 -4 -13 -13 -30z
m-53 -23 c-10 -9 -11 -8 -5 6 3 10 9 15 12 12 3 -3 0 -11 -7 -18z m89 -29
c-15 -17 -19 -18 -15 -5 5 12 2 17 -9 17 -18 0 -21 -21 -6 -36 5 -5 5 -15 1
-22 -6 -10 -10 -4 -15 18 -7 40 -1 50 30 50 13 0 24 6 25 13 0 9 2 9 6 0 2 -7
-5 -23 -17 -35z m-197 25 c-7 -2 -13 -11 -13 -19 0 -8 -5 -14 -10 -14 -7 0 -7
6 0 20 6 11 16 20 23 19 9 0 9 -2 0 -6z m121 -27 c-3 -9 -10 -16 -15 -16 -5 0
-4 9 3 20 14 22 21 20 12 -4z m-99 4 c-3 -5 -12 -10 -18 -10 -7 0 -6 4 3 10
19 12 23 12 15 0z m-91 -25 c-7 -16 -24 -21 -24 -6 0 8 7 13 27 20 1 1 0 -6
-3 -14z m187 -26 c-12 -11 -21 -15 -21 -10 0 5 -6 11 -12 14 -7 2 -5 3 5 1 10
-1 23 6 30 17 7 11 14 14 16 8 2 -6 -6 -19 -18 -30z m-156 21 c-3 -5 -12 -10
-18 -10 -7 0 -6 4 3 10 19 12 23 12 15 0z m-91 -25 c-4 -8 -14 -15 -23 -15
-14 1 -13 3 3 15 25 19 27 19 20 0z m146 11 c0 -3 -4 -8 -10 -11 -5 -3 -10 -1
-10 4 0 6 5 11 10 11 6 0 10 -2 10 -4z m120 -35 c-6 -12 -15 -21 -20 -21 -6 0
-9 -3 -7 -8 4 -14 -40 -54 -48 -43 -3 6 -2 11 4 11 5 0 18 13 27 29 10 17 21
28 25 25 4 -2 11 5 14 17 4 11 9 18 12 16 2 -3 0 -15 -7 -26z m-282 -5 c12 0
22 -3 22 -8 0 -5 -6 -8 -12 -5 -7 2 -21 0 -30 -5 -13 -6 -18 -5 -18 4 0 9 -3
9 -12 0 -10 -10 -10 -15 2 -22 11 -7 8 -10 -15 -10 -21 0 -26 3 -16 9 7 5 11
13 7 19 -8 13 25 33 39 23 5 -4 20 -6 33 -5z m179 8 c-3 -3 -12 -4 -19 -1 -8
3 -5 6 6 6 11 1 17 -2 13 -5z m-57 -19 c16 -19 9 -45 -16 -62 -19 -12 -24 -11
-45 6 -21 16 -22 22 -11 45 13 29 52 36 72 11z m73 -2 c-7 -2 -19 -2 -25 0 -7
3 -2 5 12 5 14 0 19 -2 13 -5z m-193 -27 c0 -2 -7 -7 -16 -10 -8 -3 -12 -2 -9
4 6 10 25 14 25 6z m10 -30 c0 -2 -7 -6 -15 -10 -8 -3 -15 -1 -15 4 0 6 7 10
15 10 8 0 15 -2 15 -4z m190 -16 c0 -5 -4 -10 -10 -10 -5 0 -10 5 -10 10 0 6
5 10 10 10 6 0 10 -4 10 -10z m-68 -42 c-2 -10 -7 -18 -11 -18 -4 0 -7 8 -7
18 0 10 5 19 12 19 6 0 9 -9 6 -19z m-32 -3 c0 -8 -7 -15 -15 -15 -13 0 -14 3
-3 15 16 18 18 18 18 0z"/>
<path d="M5152 2571 c-19 -12 -11 -45 12 -49 24 -5 37 17 25 40 -11 20 -18 22
-37 9z"/>
<path d="M563 3630 c-22 -9 -23 -14 -23 -135 0 -110 -2 -125 -17 -125 -15 0
-15 -1 0 -18 13 -15 17 -39 17 -114 0 -87 -2 -96 -20 -101 -11 -3 -20 -12 -20
-21 0 -14 18 -16 138 -15 78 0 152 5 172 12 103 36 108 199 8 241 l-28 12 23
13 c35 19 57 63 57 115 0 94 -51 140 -154 138 -33 0 -70 -2 -81 -3 -11 -1 -27
1 -35 4 -8 3 -25 2 -37 -3z m176 -39 c42 -42 49 -135 15 -188 -12 -18 -24 -23
-59 -23 l-45 0 0 109 c0 78 4 111 13 114 27 11 58 6 76 -12z m30 -277 c26 -33
29 -118 5 -152 -12 -18 -25 -22 -70 -22 l-54 0 0 100 0 100 49 0 c42 0 53 -4
70 -26z"/>
<path d="M1110 3629 c0 -5 5 -9 10 -9 6 0 10 -47 10 -120 0 -100 -2 -120 -15
-120 -8 0 -15 -4 -15 -9 0 -5 7 -11 15 -15 12 -4 15 -26 15 -110 0 -95 -2
-104 -20 -109 -11 -3 -20 -12 -20 -21 0 -14 15 -16 95 -16 80 0 95 2 95 16 0
9 -9 18 -20 21 -26 7 -32 31 -28 128 3 77 4 80 28 80 22 0 26 -8 51 -92 33
-116 49 -140 95 -149 53 -10 83 24 91 99 5 49 3 57 -11 57 -9 0 -16 -8 -16
-19 0 -24 -13 -33 -34 -25 -14 6 -86 110 -86 125 0 4 13 9 29 12 98 20 127
154 50 233 -43 45 -98 60 -162 45 -27 -6 -54 -8 -60 -4 -17 11 -97 12 -97 2z
m220 -49 c35 -19 52 -109 29 -153 -17 -32 -28 -37 -81 -37 l-48 0 0 84 c0 64
4 88 16 100 17 18 56 21 84 6z"/>
<path d="M2050 3631 c0 -5 7 -11 15 -15 23 -8 22 -246 -1 -246 -14 0 -14 -2 0
-22 12 -16 16 -47 16 -114 0 -83 -2 -92 -20 -97 -11 -3 -20 -12 -20 -21 0 -25
259 -23 316 3 80 37 100 155 35 213 -17 15 -38 28 -46 28 -9 0 1 14 23 34 35
33 37 37 37 100 0 58 -3 68 -29 95 -35 36 -110 57 -164 45 -20 -4 -44 -7 -52
-6 -53 9 -110 10 -110 3z m234 -52 c21 -25 26 -41 26 -85 0 -30 -7 -68 -15
-84 -14 -27 -20 -30 -65 -30 l-50 0 0 105 c0 88 3 106 18 114 31 18 60 12 86
-20z m26 -271 c24 -39 26 -98 4 -139 -14 -29 -18 -30 -72 -27 l-57 3 -3 98 -3
97 56 0 c52 0 57 -2 75 -32z"/>
<path d="M2760 3632 c0 -3 7 -10 16 -16 14 -11 12 -24 -18 -124 -26 -87 -37
-112 -50 -112 -20 0 -23 -11 -7 -27 8 -8 3 -38 -17 -108 -22 -76 -33 -100 -51
-108 -13 -6 -23 -16 -23 -24 0 -10 18 -13 70 -13 54 0 70 3 70 14 0 8 -9 18
-21 21 -23 8 -23 20 7 121 13 46 18 53 30 43 8 -7 38 -13 67 -14 l51 -2 18
-59 c22 -75 22 -77 -3 -89 -43 -20 -18 -30 76 -33 75 -2 95 0 95 11 0 8 -10
18 -23 24 -18 8 -29 32 -51 108 -20 70 -25 100 -17 108 16 16 14 25 -6 29 -12
2 -26 35 -50 113 -28 96 -31 111 -18 121 8 6 15 13 15 16 0 2 -36 4 -80 4 -44
0 -80 -2 -80 -4z m81 -200 c11 -43 11 -55 0 -61 -10 -6 -9 -10 3 -14 9 -4 16
-16 16 -27 0 -28 -42 -27 -73 3 l-24 22 24 79 c27 86 32 86 54 -2z"/>
<path d="M3290 3629 c0 -5 5 -9 10 -9 6 0 10 -47 10 -120 0 -100 -2 -120 -15
-120 -8 0 -15 -4 -15 -9 0 -5 7 -11 15 -15 12 -4 15 -26 15 -110 0 -95 -2
-104 -20 -109 -11 -3 -20 -12 -20 -21 0 -14 15 -16 95 -16 80 0 95 2 95 16 0
9 -9 18 -20 21 -26 7 -32 31 -28 128 3 77 4 80 28 80 22 0 26 -8 51 -92 33
-116 49 -140 95 -149 53 -10 83 24 91 99 5 49 3 57 -11 57 -9 0 -16 -8 -16
-19 0 -24 -13 -33 -34 -25 -14 6 -86 110 -86 125 0 4 13 9 29 12 98 20 127
154 50 233 -43 45 -98 60 -162 45 -27 -6 -54 -8 -60 -4 -17 11 -97 12 -97 2z
m220 -49 c35 -19 52 -109 29 -153 -17 -32 -28 -37 -81 -37 l-48 0 0 84 c0 64
4 88 16 100 17 18 56 21 84 6z"/>
<path d="M3900 3631 c0 -5 7 -11 15 -15 23 -8 22 -246 -1 -246 -14 0 -14 -2 0
-22 12 -16 16 -47 16 -114 0 -83 -2 -92 -20 -97 -11 -3 -20 -12 -20 -21 0 -25
259 -23 316 3 80 37 100 155 35 213 -17 15 -38 28 -46 28 -9 0 1 14 23 34 35
33 37 37 37 100 0 58 -3 68 -29 95 -35 36 -110 57 -164 45 -20 -4 -44 -7 -52
-6 -53 9 -110 10 -110 3z m234 -52 c21 -25 26 -41 26 -85 0 -30 -7 -68 -15
-84 -14 -27 -20 -30 -65 -30 l-50 0 0 105 c0 88 3 106 18 114 31 18 60 12 86
-20z m26 -271 c24 -39 26 -98 4 -139 -14 -29 -18 -30 -72 -27 l-57 3 -3 98 -3
97 56 0 c52 0 57 -2 75 -32z"/>
<path d="M4490 3633 c0 -3 7 -11 15 -19 12 -12 15 -41 15 -126 0 -104 -1 -110
-21 -115 -21 -6 -21 -7 -3 -20 13 -10 19 -30 22 -78 6 -87 -3 -131 -28 -138
-11 -3 -20 -12 -20 -21 0 -14 22 -16 175 -16 132 0 177 3 180 13 2 6 5 47 8
90 3 56 1 77 -8 77 -7 0 -18 -13 -25 -30 -7 -16 -32 -48 -56 -70 -36 -33 -51
-40 -84 -40 l-40 0 0 101 0 100 48 -3 c41 -3 47 -6 50 -27 2 -13 -2 -28 -10
-32 -9 -6 -7 -9 9 -9 41 0 69 50 42 77 -8 8 -8 17 0 31 16 30 14 49 -9 72 -24
24 -60 29 -41 6 7 -8 11 -27 9 -43 -3 -26 -7 -28 -50 -31 l-48 -3 0 105 0 106
42 0 c51 0 100 -34 128 -91 34 -65 47 -52 42 44 -2 45 -5 83 -6 83 -3 4 -336
10 -336 7z"/>
<path d="M5070 3634 c0 -3 7 -12 15 -20 11 -12 15 -40 15 -119 0 -88 -3 -105
-17 -114 -17 -9 -17 -10 0 -28 13 -15 17 -38 17 -104 0 -88 -4 -101 -32 -112
-10 -3 -18 -13 -18 -22 0 -12 16 -15 95 -15 80 0 95 2 95 16 0 9 -9 18 -20 21
-18 5 -20 14 -20 109 0 98 1 104 20 104 23 0 29 -12 60 -119 31 -107 82 -152
140 -121 22 12 40 61 40 111 0 44 -16 51 -30 14 -5 -14 -13 -25 -18 -25 -14 0
-59 53 -81 96 l-20 42 34 6 c66 13 109 98 85 170 -15 45 -79 103 -125 112 -19
3 -56 1 -81 -5 -27 -7 -51 -8 -57 -3 -13 9 -97 14 -97 6z m240 -76 c12 -21 20
-51 20 -80 0 -64 -24 -88 -85 -88 l-45 0 0 88 c0 98 7 112 57 112 27 0 37 -6
53 -32z"/>
<path d="M1739 3197 c-47 -24 -31 -107 22 -107 24 0 59 34 59 58 0 17 -19 40
-46 55 -5 3 -21 0 -35 -6z"/>
<path d="M240 2235 l0 -25 2775 0 2775 0 0 25 0 25 -2775 0 -2775 0 0 -25z"/>
</g>
</svg>
